# Blender 4.0.2
# www.blender.org
mtllib see for jungle .mtl
o Circle
v -0.120843 0.000000 -3.382085
v -0.268716 0.000000 -3.317225
v -0.382541 0.000000 -3.131104
v -0.448977 0.000000 -2.832468
v -0.480542 0.000000 -2.435143
v -0.483710 0.000000 -1.959139
v -0.475975 0.000000 -1.404587
v -0.489778 0.000000 -0.757293
v -0.551664 0.000000 -0.064228
v -0.679945 0.000000 0.615878
v -0.776769 0.000000 1.355876
v -0.953426 0.000000 2.087024
v -1.129419 0.000000 2.645023
v -1.208548 0.000000 3.071319
v -1.167937 0.000000 3.394169
v -1.025791 0.000000 3.602123
v -0.827062 0.000000 3.677274
v -0.590722 0.000000 3.618373
v -0.313321 0.000000 3.421878
v 0.010786 0.000000 3.077193
v 0.349752 0.000000 2.573583
v 0.638759 0.000000 1.944647
v 0.796881 0.000000 1.281622
v 0.859483 0.000000 0.639165
v 0.875969 0.000000 -0.024206
v 0.776589 0.000000 -0.708620
v 0.659826 0.000000 -1.376922
v 0.565114 0.000000 -1.969622
v 0.460303 0.000000 -2.459815
v 0.337409 0.000000 -2.853086
v 0.195603 0.000000 -3.144109
v 0.039630 0.000000 -3.323169
v -0.194779 0.000000 -3.349655
v -0.325629 0.000000 -3.224165
v -0.415759 0.000000 -2.981786
v -0.464760 0.000000 -2.633806
v -0.482126 0.000000 -2.197141
v -0.479843 0.000000 -1.681863
v -0.482877 0.000000 -1.080940
v -0.520721 0.000000 -0.410760
v -0.615804 0.000000 0.275825
v -0.728357 0.000000 0.985877
v -0.865097 0.000000 1.721450
v -1.041422 0.000000 2.366023
v -1.168984 0.000000 2.858171
v -1.188243 0.000000 3.232744
v -1.096864 0.000000 3.498146
v -0.926426 0.000000 3.639699
v -0.708892 0.000000 3.647824
v -0.452021 0.000000 3.520126
v -0.151267 0.000000 3.249536
v 0.180269 0.000000 2.825388
v 0.494255 0.000000 2.259115
v 0.717820 0.000000 1.613134
v 0.828182 0.000000 0.960393
v 0.867726 0.000000 0.307480
v 0.826279 0.000000 -0.366413
v 0.718208 0.000000 -1.042771
v 0.612470 0.000000 -1.673272
v 0.512708 0.000000 -2.214719
v 0.398856 0.000000 -2.656451
v 0.266506 0.000000 -2.998598
v 0.117616 0.000000 -3.233639
v -0.040606 0.000000 -3.352627
v -0.120843 0.597234 -3.382085
v -0.268716 0.597234 -3.317225
v -0.382541 0.597234 -3.131104
v -0.448977 0.597234 -2.832468
v -0.480542 0.597234 -2.435143
v -0.483710 0.597234 -1.959139
v -0.475975 0.597234 -1.404587
v -0.489778 0.597234 -0.757293
v -0.551664 0.597234 -0.064228
v -0.679945 0.597234 0.615878
v -0.776769 0.597234 1.355876
v -0.953426 0.597234 2.087024
v -1.129419 0.597234 2.645023
v -1.208548 0.597234 3.071319
v -1.167937 0.597234 3.394169
v -1.025791 0.597234 3.602123
v -0.827062 0.597234 3.677274
v -0.590722 0.597234 3.618373
v -0.313321 0.597234 3.421878
v 0.010786 0.597234 3.077193
v 0.349752 0.597234 2.573583
v 0.638759 0.597234 1.944647
v 0.796881 0.597234 1.281622
v 0.859483 0.597234 0.639165
v 0.875969 0.597234 -0.024206
v 0.776589 0.597234 -0.708620
v 0.659826 0.597234 -1.376922
v 0.565114 0.597234 -1.969622
v 0.460303 0.597234 -2.459815
v 0.337409 0.597234 -2.853086
v 0.195603 0.597234 -3.144109
v 0.039630 0.597234 -3.323169
v -0.194779 0.597234 -3.349655
v -0.325629 0.597234 -3.224165
v -0.415759 0.597234 -2.981786
v -0.464760 0.597234 -2.633806
v -0.482126 0.597234 -2.197141
v -0.479843 0.597234 -1.681863
v -0.482877 0.597234 -1.080940
v -0.520721 0.597234 -0.410760
v -0.615804 0.597234 0.275825
v -0.728357 0.597234 0.985877
v -0.865097 0.597234 1.721450
v -1.041422 0.597234 2.366023
v -1.168984 0.597234 2.858171
v -1.188243 0.597234 3.232744
v -1.096864 0.597234 3.498146
v -0.926426 0.597234 3.639699
v -0.708892 0.597234 3.647824
v -0.452021 0.597234 3.520126
v -0.151267 0.597234 3.249536
v 0.180269 0.597234 2.825388
v 0.494255 0.597234 2.259115
v 0.717820 0.597234 1.613134
v 0.828182 0.597234 0.960393
v 0.867726 0.597234 0.307480
v 0.826279 0.597234 -0.366413
v 0.718208 0.597234 -1.042771
v 0.612470 0.597234 -1.673272
v 0.512708 0.597234 -2.214719
v 0.398856 0.597234 -2.656451
v 0.266506 0.597234 -2.998598
v 0.117616 0.597234 -3.233639
v -0.040606 0.597234 -3.352627
vn -0.0000 1.0000 -0.0000
vn -0.0000 -1.0000 -0.0000
vn -0.8256 -0.0000 0.5643
vn -0.5840 -0.0000 0.8118
vn -0.9727 -0.0000 -0.2320
vn -0.9499 -0.0000 -0.3127
vn 0.0638 -0.0000 -0.9980
vn 0.3537 -0.0000 -0.9354
vn -0.9953 -0.0000 -0.0970
vn -0.9873 -0.0000 -0.1590
vn -0.2418 -0.0000 -0.9703
vn -0.9997 -0.0000 -0.0248
vn -0.9982 -0.0000 -0.0602
vn 0.5780 -0.0000 0.8160
vn 0.6622 -0.0000 0.7494
vn -0.9896 -0.0000 0.1437
vn -0.9984 -0.0000 0.0557
vn 0.7285 -0.0000 0.6850
vn 0.7857 -0.0000 0.6186
vn -0.9851 -0.0000 0.1721
vn -0.9875 -0.0000 0.1577
vn -0.8760 -0.0000 -0.4823
vn -0.8296 -0.0000 -0.5584
vn -0.9875 -0.0000 0.1578
vn -0.9863 -0.0000 0.1649
vn 0.4017 -0.0000 0.9158
vn 0.0352 -0.0000 0.9994
vn -0.9087 -0.0000 -0.4175
vn -0.9779 -0.0000 0.2091
vn -0.9832 -0.0000 0.1826
vn 0.8531 -0.0000 0.5217
vn 0.7098 -0.0000 0.7044
vn -0.9545 -0.0000 0.2983
vn -0.9680 -0.0000 0.2508
vn 0.9761 -0.0000 0.2172
vn 0.9409 -0.0000 0.3386
vn -0.8990 -0.0000 0.4380
vn -0.9324 -0.0000 0.3615
vn 0.9969 -0.0000 0.0792
vn 0.9898 -0.0000 0.1428
vn -0.7540 -0.0000 0.6568
vn -0.8445 -0.0000 0.5355
vn 1.0000 -0.0000 0.0067
vn 0.9991 -0.0000 0.0424
vn -0.3446 -0.0000 0.9387
vn -0.5990 -0.0000 0.8008
vn 0.9999 -0.0000 -0.0139
vn 1.0000 -0.0000 -0.0036
vn 0.9998 -0.0000 0.0213
vn 1.0000 -0.0000 0.0037
vn 0.9960 -0.0000 0.0889
vn 0.9985 -0.0000 0.0545
vn 0.9827 -0.0000 0.1854
vn 0.9909 -0.0000 0.1346
vn 0.9915 -0.0000 0.1297
vn 0.9877 -0.0000 0.1566
vn 0.9720 -0.0000 0.2349
vn 0.9839 -0.0000 0.1787
vn 0.9537 -0.0000 0.3008
vn 0.9639 -0.0000 0.2663
vn 0.9832 -0.0000 0.1825
vn 0.9716 -0.0000 0.2367
vn 0.0634 -0.0000 0.9980
vn -0.9997 -0.0000 -0.0235
vn -0.9922 -0.0000 0.1248
vn -0.9593 -0.0000 0.2822
vn -0.0373 -0.0000 0.9993
vn -0.9832 -0.0000 -0.1825
vn 0.8296 -0.0000 0.5584
vt 0.122029 0.626557
vt 0.122041 0.623903
vt 0.120731 0.624508
vt 0.073714 0.273960
vt 0.074025 0.281535
vt 0.073227 0.273449
vt 0.000000 0.000000
s 1
usemtl River_Water
f 1/1/1 33/2/1 64/3/1
f 17/4/1 49/5/1 48/6/1
f 47/7/2 15/7/2 19/7/2 50/7/2
f 48/6/1 49/5/1 18/7/1 16/7/1
f 50/7/2 18/7/2 48/6/2 16/7/2 47/7/2
f 46/7/2 14/7/2 20/7/2 51/7/2
f 51/7/2 19/7/2 15/7/2 46/7/2
f 52/7/2 20/7/2 14/7/2 45/7/2
f 64/3/1 33/2/1 2/7/1 32/7/1
f 34/7/1 63/7/1 32/7/1 2/7/1
f 63/7/1 34/7/1 3/7/1 31/7/1
f 35/7/1 62/7/1 31/7/1 3/7/1
f 62/7/1 35/7/1 4/7/1 30/7/1
f 36/7/1 61/7/1 30/7/1 4/7/1
f 61/7/1 36/7/1 5/7/1 29/7/1
f 37/7/1 60/7/1 29/7/1 5/7/1
f 60/7/1 37/7/1 6/7/1 28/7/1
f 38/7/1 59/7/1 28/7/1 6/7/1
f 59/7/1 38/7/1 7/7/1 27/7/1
f 39/7/1 58/7/1 27/7/1 7/7/1
f 58/7/1 39/7/1 8/7/1 26/7/1
f 40/7/1 57/7/1 26/7/1 8/7/1
f 57/7/1 40/7/1 9/7/1 25/7/1
f 41/7/1 56/7/1 25/7/1 9/7/1
f 56/7/1 41/7/1 10/7/1 24/7/1
f 42/7/1 55/7/1 24/7/1 10/7/1
f 55/7/1 42/7/1 11/7/1 23/7/1
f 43/7/1 54/7/1 23/7/1 11/7/1
f 54/7/1 43/7/1 12/7/1 22/7/1
f 44/7/1 53/7/1 22/7/1 12/7/1
f 53/7/1 44/7/1 13/7/1 21/7/1
f 45/7/1 52/7/1 21/7/1 13/7/1
f 65/1/2 128/3/2 97/2/2
f 81/4/2 112/6/2 113/5/2
f 111/7/1 114/7/1 83/7/1 79/7/1
f 112/6/2 80/7/2 82/7/2 113/5/2
f 114/7/1 111/7/1 80/7/1 112/6/1 82/7/1
f 110/7/1 115/7/1 84/7/1 78/7/1
f 115/7/1 110/7/1 79/7/1 83/7/1
f 116/7/1 109/7/1 78/7/1 84/7/1
f 128/3/2 96/7/2 66/7/2 97/2/2
f 98/7/2 66/7/2 96/7/2 127/7/2
f 127/7/2 95/7/2 67/7/2 98/7/2
f 99/7/2 67/7/2 95/7/2 126/7/2
f 126/7/2 94/7/2 68/7/2 99/7/2
f 100/7/2 68/7/2 94/7/2 125/7/2
f 125/7/2 93/7/2 69/7/2 100/7/2
f 101/7/2 69/7/2 93/7/2 124/7/2
f 124/7/2 92/7/2 70/7/2 101/7/2
f 102/7/2 70/7/2 92/7/2 123/7/2
f 123/7/2 91/7/2 71/7/2 102/7/2
f 103/7/2 71/7/2 91/7/2 122/7/2
f 122/7/2 90/7/2 72/7/2 103/7/2
f 104/7/2 72/7/2 90/7/2 121/7/2
f 121/7/2 89/7/2 73/7/2 104/7/2
f 105/7/2 73/7/2 89/7/2 120/7/2
f 120/7/2 88/7/2 74/7/2 105/7/2
f 106/7/2 74/7/2 88/7/2 119/7/2
f 119/7/2 87/7/2 75/7/2 106/7/2
f 107/7/2 75/7/2 87/7/2 118/7/2
f 118/7/2 86/7/2 76/7/2 107/7/2
f 108/7/2 76/7/2 86/7/2 117/7/2
f 117/7/2 85/7/2 77/7/2 108/7/2
f 109/7/2 77/7/2 85/7/2 116/7/2
f 47/7/3 16/7/4 80/7/4 111/7/3
f 54/7/5 22/7/6 86/7/6 118/7/5
f 17/4/7 48/6/8 112/6/8 81/4/7
f 55/7/9 23/7/10 87/7/10 119/7/9
f 18/7/11 49/5/11 113/5/11 82/7/11
f 56/7/12 24/7/13 88/7/13 120/7/12
f 50/7/14 19/7/15 83/7/15 114/7/14
f 57/7/16 25/7/17 89/7/17 121/7/16
f 51/7/18 20/7/19 84/7/19 115/7/18
f 58/7/20 26/7/21 90/7/21 122/7/20
f 21/7/22 52/7/23 116/7/23 85/7/22
f 59/7/24 27/7/25 91/7/25 123/7/24
f 33/2/26 1/1/27 65/1/27 97/2/26
f 22/7/6 53/7/28 117/7/28 86/7/6
f 60/7/29 28/7/30 92/7/30 124/7/29
f 34/7/31 2/7/32 66/7/32 98/7/31
f 23/7/10 54/7/5 118/7/5 87/7/10
f 61/7/33 29/7/34 93/7/34 125/7/33
f 35/7/35 3/7/36 67/7/36 99/7/35
f 24/7/13 55/7/9 119/7/9 88/7/13
f 62/7/37 30/7/38 94/7/38 126/7/37
f 36/7/39 4/7/40 68/7/40 100/7/39
f 25/7/17 56/7/12 120/7/12 89/7/17
f 63/7/41 31/7/42 95/7/42 127/7/41
f 37/7/43 5/7/44 69/7/44 101/7/43
f 26/7/21 57/7/16 121/7/16 90/7/21
f 64/3/45 32/7/46 96/7/46 128/3/45
f 38/7/47 6/7/48 70/7/48 102/7/47
f 27/7/25 58/7/20 122/7/20 91/7/25
f 39/7/49 7/7/50 71/7/50 103/7/49
f 28/7/30 59/7/24 123/7/24 92/7/30
f 2/7/32 33/2/26 97/2/26 66/7/32
f 40/7/51 8/7/52 72/7/52 104/7/51
f 29/7/34 60/7/29 124/7/29 93/7/34
f 3/7/36 34/7/31 98/7/31 67/7/36
f 41/7/53 9/7/54 73/7/54 105/7/53
f 30/7/38 61/7/33 125/7/33 94/7/38
f 4/7/40 35/7/35 99/7/35 68/7/40
f 42/7/55 10/7/56 74/7/56 106/7/55
f 31/7/42 62/7/37 126/7/37 95/7/42
f 5/7/44 36/7/39 100/7/39 69/7/44
f 43/7/57 11/7/58 75/7/58 107/7/57
f 32/7/46 63/7/41 127/7/41 96/7/46
f 6/7/48 37/7/43 101/7/43 70/7/48
f 44/7/59 12/7/60 76/7/60 108/7/59
f 1/1/27 64/3/45 128/3/45 65/1/27
f 7/7/50 38/7/47 102/7/47 71/7/50
f 45/7/61 13/7/62 77/7/62 109/7/61
f 48/6/63 18/7/63 82/7/63 112/6/63
f 8/7/52 39/7/49 103/7/49 72/7/52
f 14/7/64 46/7/65 110/7/65 78/7/64
f 9/7/54 40/7/51 104/7/51 73/7/54
f 15/7/66 47/7/3 111/7/3 79/7/66
f 10/7/56 41/7/53 105/7/53 74/7/56
f 16/7/4 18/7/67 82/7/67 80/7/4
f 11/7/58 42/7/55 106/7/55 75/7/58
f 49/5/11 17/4/7 81/4/7 113/5/11
f 12/7/60 43/7/57 107/7/57 76/7/60
f 18/7/14 50/7/14 114/7/14 82/7/14
f 13/7/62 44/7/59 108/7/59 77/7/62
f 19/7/15 51/7/18 115/7/18 83/7/15
f 45/7/68 14/7/64 78/7/64 109/7/68
f 20/7/19 52/7/69 116/7/69 84/7/19
f 46/7/65 15/7/66 79/7/66 110/7/65
f 53/7/28 21/7/22 85/7/22 117/7/28
